<svg width="900" height="480" xmlns="http://www.w3.org/2000/svg" style="background:#000; font-family:'Segoe UI',sans-serif;">
  <!-- Background Glow -->
  <defs>
    <radialGradient id="bg" cx="50%" cy="50%" r="75%">
      <stop offset="0%" stop-color="#02263a"/>
      <stop offset="100%" stop-color="#000"/>
    </radialGradient>
  </defs>
  <rect width="100%" height="100%" fill="url(#bg)" />

  <!-- ESP32 -->
  <rect x="390" y="200" width="120" height="80" rx="12" fill="#00eaff" opacity="0.1" stroke="#00eaff" stroke-width="2"/>
  <text x="450" y="245" fill="#00eaff" font-weight="700" font-size="18" text-anchor="middle">ESP32</text>
  <text x="450" y="265" fill="#7fffd4" font-size="12" text-anchor="middle">Node MCU</text>

  <!-- Sensors -->
  <rect x="120" y="150" width="160" height="60" rx="10" fill="none" stroke="#00ffae" stroke-width="2"/>
  <text x="200" y="175" fill="#00ffae" font-size="15" text-anchor="middle">🌱 Soil Moisture Sensor</text>
  <text x="200" y="195" fill="#7fffd4" font-size="12" text-anchor="middle">(เซนเซอร์ความชื้นดิน)</text>

  <rect x="120" y="270" width="160" height="60" rx="10" fill="none" stroke="#00ffae" stroke-width="2"/>
  <text x="200" y="295" fill="#00ffae" font-size="15" text-anchor="middle">🧪 NPK Sensor</text>
  <text x="200" y="315" fill="#7fffd4" font-size="12" text-anchor="middle">(เซนเซอร์ปุ๋ย)</text>

  <!-- Pump & Relay -->
  <rect x="660" y="220" width="180" height="60" rx="10" fill="none" stroke="#22c55e" stroke-width="2"/>
  <text x="750" y="245" fill="#22c55e" font-size="15" text-anchor="middle">💧 Relay + Water Pump</text>
  <text x="750" y="265" fill="#99f6e4" font-size="12" text-anchor="middle">(รีเลย์ + ปั๊มน้ำ)</text>

  <!-- Cloud -->
  <ellipse cx="450" cy="80" rx="150" ry="50" fill="none" stroke="#38bdf8" stroke-width="2" />
  <text x="450" y="75" fill="#38bdf8" font-size="16" font-weight="bold" text-anchor="middle">☁ IoT Cloud Platform</text>
  <text x="450" y="95" fill="#7dd3fc" font-size="12" text-anchor="middle">ThingSpeak / Firebase</text>

  <!-- Dashboard -->
  <rect x="370" y="370" width="160" height="60" rx="10" fill="none" stroke="#00bcd4" stroke-width="2"/>
  <text x="450" y="395" fill="#00bcd4" font-size="15" text-anchor="middle">📊 Dashboard</text>
  <text x="450" y="415" fill="#7dd3fc" font-size="12" text-anchor="middle">(Vercel / Node-RED)</text>

  <!-- Arrows -->
  <g stroke="#00eaff" stroke-width="2" marker-end="url(#arrow)">
    <!-- Sensors to ESP32 -->
    <line x1="280" y1="180" x2="390" y2="240" />
    <line x1="280" y1="300" x2="390" y2="240" />
    <!-- ESP32 to Cloud -->
    <line x1="450" y1="200" x2="450" y2="130" />
    <!-- ESP32 to Pump -->
    <line x1="510" y1="240" x2="660" y2="250" />
    <!-- ESP32 to Dashboard -->
    <line x1="450" y1="280" x2="450" y2="370" />
  </g>

  <!-- Arrow head -->
  <defs>
    <marker id="arrow" markerWidth="10" markerHeight="10" refX="8" refY="3" orient="auto" markerUnits="strokeWidth">
      <path d="M0,0 L0,6 L9,3 z" fill="#00eaff" />
    </marker>
  </defs>

  <!-- Title -->
  <text x="450" y="30" fill="#00ffa8" font-size="20" text-anchor="middle" font-weight="700">Smart Durian Garden IoT System</text>
</svg>
